<?xml version="1.0" standalone="no"?>
<!DOCTYPE svg PUBLIC "-//W3C//DTD SVG 20010904//EN"
 "http://www.w3.org/TR/2001/REC-SVG-20010904/DTD/svg10.dtd">
<svg version="1.0" xmlns="http://www.w3.org/2000/svg"
 width="959.000000pt" height="959.000000pt" viewBox="0 0 959.000000 959.000000"
 preserveAspectRatio="xMidYMid meet">
<metadata>
Created by potrace 1.14, written by Peter Selinger 2001-2017
</metadata>
<g transform="translate(0.000000,959.000000) scale(0.100000,-0.100000)"
fill="#000000" stroke="none">
<path d="M5810 9545 c-266 -94 -667 -303 -960 -498 -142 -96 -334 -236 -379
-277 -9 -8 -36 -31 -61 -50 -291 -229 -680 -661 -892 -990 -83 -128 -90 -139
-131 -215 -179 -329 -336 -776 -392 -1115 -3 -19 -12 -69 -20 -110 -8 -41 -17
-97 -20 -125 -3 -27 -7 -59 -9 -70 -2 -11 -7 -54 -11 -95 -4 -41 -8 -91 -11
-110 -23 -204 -23 -728 1 -945 8 -73 16 -149 21 -200 3 -27 9 -72 14 -100 6
-27 12 -67 15 -88 l4 -38 -31 22 c-199 142 -424 382 -562 599 -121 191 -223
449 -251 640 -3 20 -8 47 -10 60 -23 108 -23 408 -1 525 23 123 27 156 24 166
-8 23 -134 -167 -230 -346 -300 -554 -528 -1188 -612 -1700 -29 -172 -29 -178
-41 -355 -11 -166 -6 -517 10 -599 1 -9 6 -43 9 -76 12 -106 30 -219 46 -295
5 -25 12 -56 14 -70 34 -180 134 -503 223 -714 344 -819 910 -1468 1653 -1893
169 -97 388 -209 480 -246 122 -49 321 -111 430 -133 14 -3 41 -9 60 -14 43
-11 63 -15 215 -39 327 -53 545 -57 802 -16 52 8 125 20 161 25 429 61 557 89
792 176 133 49 175 68 335 149 112 57 376 215 430 257 6 4 53 40 105 79 218
164 467 400 620 589 25 30 48 57 51 60 19 15 173 234 228 321 227 364 360 734
399 1104 15 147 8 578 -13 720 -2 17 -6 50 -9 75 -3 25 -8 61 -11 80 -3 19 -7
51 -9 70 -4 35 -13 93 -22 140 -2 14 -7 41 -10 60 -5 34 -54 302 -73 405 -6
28 -13 70 -17 95 -3 25 -8 54 -10 65 -7 38 -36 230 -39 265 -2 19 -7 69 -12
110 -16 147 -9 596 12 740 2 14 6 50 10 80 12 108 16 136 30 220 8 47 16 102
20 124 3 21 7 41 9 45 2 3 7 24 10 46 13 83 86 310 114 353 19 29 13 28 -48
-8 -227 -134 -466 -338 -641 -548 -80 -96 -299 -427 -299 -452 0 -5 -4 -10 -9
-10 -5 0 -11 -8 -15 -17 -3 -10 -15 -31 -26 -48 -11 -16 -24 -39 -30 -50 -6
-11 -23 -40 -39 -65 -50 -80 -282 -462 -354 -582 -39 -65 -72 -116 -74 -115
-1 2 4 26 12 53 15 53 39 164 49 229 4 22 11 67 16 100 30 199 33 623 5 796
-2 13 -6 44 -9 69 -3 25 -8 56 -11 70 -3 14 -10 52 -16 85 -60 334 -184 658
-397 1040 -143 257 -161 291 -252 475 -177 355 -269 594 -304 790 -23 129 -25
141 -31 200 -3 30 -8 64 -10 75 -22 111 -23 570 -1 705 3 14 7 43 10 65 8 58
15 93 32 159 8 32 13 60 12 62 -2 1 -32 -8 -68 -21z"/>
</g>
</svg>
